General                          : ChattChitto RG - Movies

Complete name                    : The Wolfman 2010 UNRATED BRRip.mp4
Format                           : MPEG-4
Format profile                   : Base Media
Codec ID                         : isom
File size                        : 2.21 GiB
Duration                         : 1h 59mn
Overall bit rate                 : 2 659 Kbps
Encoded date                     : UTC 2010-05-23 15:37:11

Video
==========
ID                               : 1
Format                           : AVC
Format/Info                      : Advanced Video Codec
Format profile                   : High@L4.0
Format settings, CABAC           : Yes
Format settings, ReFrames        : 4 frames
Codec ID                         : avc1
Codec ID/Info                    : Advanced Video Coding
Duration                         : 1h 59mn
Bit rate mode                    : Variable
Bit rate                         : 2 300 Kbps
Maximum bit rate                 : 21.3 Mbps
Width                            : 1 280 pixels
Height                           : 688 pixels
Display aspect ratio             : 1.860
Frame rate mode                  : Constant
Frame rate                       : 23.976 fps
Resolution                       : 8 bits
Colorimetry                      : 4:2:0
Scan type                        : Progressive
Bits/(Pixel*Frame)               : 0.109
Stream size                      : 1.91 GiB (86%)
Writing library                  : x264 core 84 r1400M 20fa784
Encoded date                     : UTC 2010-05-23 15:31:30

Audio
==========
ID                               : 2
Format                           : AAC
Format/Info                      : Advanced Audio Codec
Format version                   : Version 4
Format profile                   : LC
Format settings, SBR             : No
Codec ID                         : 40
Duration                         : 1h 59mn
Bit rate mode                    : Variable
Bit rate                         : 352.8 Kbps
Maximum bit rate                 : 435 Kbps
Channel(s)                       : 6 channels
Channel positions                : Front: L C R, Side: L R, LFE
Sampling rate                    : 48.0 KHz
Stream size                      : 303 MiB (13%)
Encoded date                     : UTC 2010-05-20 11:39:57

Subtitles                        : English [SDH] | French | Hungarian | Portuguese



----------------------------------------------------
IMDB Link: http://www.imdb.com/title/tt0780653/
----------------------------------------------------



Screen-Shots Comparison:
========================= 
http://comparescreenshots.slicx.com/comparison/58406



Screen Shots:
============== 
http://img96.imageshack.us/img96/6074/26967653.jpg 
http://img337.imageshack.us/img337/9315/69752230.jpg 
http://img444.imageshack.us/img444/4937/40738206.jpg 
http://img19.imageshack.us/img19/2507/91281798.jpg 
http://img189.imageshack.us/img189/2304/18623526.jpg



Plot:
======
Lawrence Talbot, a haunted nobleman, is lured back to his family estate after his brother vanishes. Reunited with his estranged father, Talbot sets out to find his brother... and discovers a horrifying destiny for himself. Talbot's childhood ended the night his mother died. After he left the sleepy Victorian hamlet of Blackmoor, he spent decades recovering and trying to forget. But when his brother's fiancée, Gwen Conliffe, tracks him down to help find her missing love, Talbot returns home to join the search. He learns that something with brute strength and insatiable bloodlust has been killing the villagers, and that a suspicious Scotland Yard inspector named Aberline has come to investigate.




Release Info:
==============
original name .... : The Wolfman 2010 UNRATED BRRip.mp4
ripper.............: REFiNED
encoder............: Recalled2Life (R2L)
video codec........: H264/.MP4
video bitrate......: 2300 Kbps
audio codec........: AAC-LC
aspect ratio.......: 1.85:1
resolution.........: 1280 x 688
genre..............: Horror | Thriller
runtime............: 1h 59mn
language...........: English
rating.............: UNRATED
subtitles..........: English [SDH] | French | Hungarian | Portuguese 
sample.............: Yes [11.4 MB]
2ch Audio..........: 2ch Audio for XBox Viewers  
Compatibility .....: XBox 360 | PS3 | WD Live     



Source:
========
The Wolfman UNRATED 1080p BluRay x264-REFiNED [7.94 GB]


Notes:
=======
ChattChitto RG Encourages Burning this Film with ConvertXtoDVD.
XBox 360 | PS3 | WD Live - Compatible
Enhanced and Filtered for your viewing pleasure ;)


Repack NOTES:
==============
The source from the first encode turns out had a issue. Between 1mn and 2mn there was some blocky artifacts and whiteness. 
http://img692.imageshack.us/img692/1121/repackreason.jpg
Apologizes for anyone who downloaded the first release and watched it, but you would agree it was actually pretty good and watchable. However as it was not 100% this REPACK has been released.